<?xml version="1.0" encoding="utf-8"?>
<!-- Generator: Adobe Illustrator 23.0.0, SVG Export Plug-In . SVG Version: 6.00 Build 0)  -->
<svg version="1.1" id="Capa_1" xmlns="http://www.w3.org/2000/svg" xmlns:xlink="http://www.w3.org/1999/xlink" x="0px" y="0px"
	 viewBox="0 0 429.1 429.1" style="enable-background:new 0 0 429.1 429.1;" xml:space="preserve">
<style type="text/css">
	.st0{fill:#FFFFFF;}
</style>
<g>
	<g>
		<path class="st0" d="M413.7,182.3h-21.5v-68.1c-0.5-8.2-7.2-14.8-15.4-15.4H229.9V4.6h-30.7v94.2H52.2
			c-8.2,0.5-14.8,7.2-15.4,15.4v68.1H15.4c-8.7,0-15.4,6.7-15.4,15.4V299c0,8.7,6.7,15.4,15.4,15.4h21.5v94.7
			c0.5,8.2,7.2,14.8,15.4,15.4h324.6c8.2-0.5,14.8-7.2,15.4-15.4v-94.7h21.5c8.7,0,15.4-6.7,15.4-15.4V197.6
			C429.1,188.9,422.4,182.3,413.7,182.3z M100.4,218.6c0-24.6,20-44.5,44.5-44.5s44.5,20,44.5,44.5s-20,44.5-44.5,44.5
			S100.4,243.2,100.4,218.6z M282.1,352.3H146.9v-30.7h135.2V352.3z M328.7,218.6c0,24.6-20,44.5-44.5,44.5
			c-25.1,0-45.1-20-45.6-44.5c0-25.1,20-45.1,44.5-45.6c24.6-0.5,45.1,20,45.6,44.5C328.7,218.1,328.7,218.1,328.7,218.6z"/>
	</g>
</g>
</svg>
